<?xml version="1.0" standalone="no"?>
<!DOCTYPE svg PUBLIC "-//W3C//DTD SVG 20010904//EN"
 "http://www.w3.org/TR/2001/REC-SVG-20010904/DTD/svg10.dtd">
<svg version="1.0" xmlns="http://www.w3.org/2000/svg"
 width="501.000000pt" height="478.000000pt" viewBox="0 0 501.000000 478.000000"
 preserveAspectRatio="xMidYMid meet">

<g transform="translate(0.000000,478.000000) scale(0.100000,-0.100000)"
fill="#000000" stroke="none">
<path d="M2381 4645 c-131 -29 -253 -106 -337 -214 -24 -31 -243 -401 -486
-822 -242 -420 -464 -804 -493 -854 -607 -1049 -948 -1643 -964 -1680 -25 -56
-51 -179 -51 -237 0 -64 25 -166 54 -228 81 -171 245 -289 443 -319 72 -11
283 -15 283 -6 0 3 -41 77 -91 165 -84 148 -92 165 -92 214 0 48 8 67 62 165
67 118 109 164 168 181 25 7 115 10 255 8 l216 -3 43 -30 c64 -45 104 -117
104 -187 0 -49 -4 -61 -30 -88 -58 -60 -147 -59 -202 3 -52 59 -70 67 -156 67
-86 0 -118 -13 -143 -61 -7 -15 -14 -41 -14 -57 0 -43 108 -230 142 -248 40
-21 487 -20 528 1 19 10 50 52 96 132 68 117 69 118 69 193 l-1 75 -262 458
c-144 252 -266 476 -272 498 -15 53 -2 93 64 209 104 182 130 194 419 188 173
-3 196 -6 232 -25 71 -38 135 -132 135 -199 0 -134 -172 -184 -251 -73 -28 39
-74 59 -139 59 -92 0 -148 -38 -157 -108 -5 -36 2 -54 63 -162 46 -84 77 -128
98 -141 28 -17 54 -19 264 -19 175 0 241 3 265 14 26 11 48 41 120 165 48 84
87 162 87 174 0 12 -125 240 -277 507 -275 482 -277 485 -281 551 -3 54 0 74
18 110 42 81 382 674 406 705 32 44 116 84 174 84 58 0 142 -40 174 -84 24
-31 364 -624 406 -705 18 -36 21 -56 18 -110 -4 -66 -6 -69 -281 -551 -152
-267 -277 -495 -277 -507 0 -12 40 -90 89 -174 68 -117 96 -157 117 -166 20
-8 102 -12 265 -13 289 0 272 -7 366 160 56 102 63 120 60 158 -8 73 -62 112
-157 112 -65 0 -111 -20 -139 -59 -79 -111 -251 -61 -251 73 0 67 64 161 135
199 36 19 59 22 232 25 279 5 314 -8 402 -157 81 -138 94 -177 80 -239 -4 -21
-126 -245 -271 -498 l-262 -459 -1 -75 c0 -75 1 -76 69 -193 46 -80 77 -122
96 -132 41 -21 488 -22 528 -1 18 9 47 50 85 116 70 125 74 161 23 214 -33 36
-34 36 -117 36 -92 0 -110 -7 -162 -67 -55 -62 -144 -63 -203 -2 -25 26 -29
38 -29 89 0 52 4 65 40 116 26 38 55 66 84 81 42 22 54 23 258 23 291 0 298
-3 405 -193 54 -96 61 -115 61 -163 0 -49 -8 -66 -92 -214 -50 -88 -91 -162
-91 -165 0 -11 240 -3 315 10 225 40 404 212 450 430 18 88 19 134 1 228 -19
99 -49 162 -198 417 -69 118 -403 697 -743 1285 -340 589 -647 1122 -684 1185
-37 63 -125 216 -196 340 -114 197 -140 235 -210 306 -91 92 -167 135 -280
159 -85 18 -140 18 -224 0z"/>
<path d="M2463 3438 c-5 -7 -72 -122 -147 -255 -94 -164 -136 -249 -134 -265
2 -13 66 -135 143 -271 124 -219 143 -246 165 -246 22 0 41 27 165 246 77 136
141 258 143 272 2 18 -41 103 -141 276 -144 252 -166 279 -194 243z"/>
<path d="M2392 1114 c-29 -14 -63 -40 -76 -58 -13 -17 -110 -184 -216 -371
-106 -187 -201 -355 -212 -372 l-20 -33 155 0 155 0 143 253 c128 224 147 252
169 252 22 0 41 -28 169 -252 l143 -253 155 0 155 0 -20 33 c-11 17 -106 185
-212 372 -106 187 -203 354 -216 371 -32 44 -116 84 -174 84 -30 0 -65 -9 -98
-26z"/>
</g>
</svg>
