<?xml version="1.0" standalone="no"?>
<!DOCTYPE svg PUBLIC "-//W3C//DTD SVG 20010904//EN"
 "http://www.w3.org/TR/2001/REC-SVG-20010904/DTD/svg10.dtd">
<svg version="1.0" xmlns="http://www.w3.org/2000/svg"
 width="456pt" height="456pt" viewBox="0 0 2461.000000 2210.000000"
 preserveAspectRatio="xMidYMid meet">

<g transform="translate(0.000000,2210.000000) scale(0.100000,-0.100000)"
fill="#de1e25" stroke="none">
<path d="M12190 22093 c-420 -29 -740 -114 -1105 -293 -295 -145 -541 -324
-796 -579 -173 -174 -290 -315 -414 -501 -68 -103 -9292 -16066 -9476 -16400
-200 -364 -337 -803 -379 -1213 -16 -155 -8 -556 14 -690 69 -425 207 -783
431 -1117 114 -171 198 -273 345 -421 473 -476 1078 -760 1820 -855 98 -13
257 -17 733 -21 334 -3 607 -2 607 1 0 3 -190 338 -421 743 -232 406 -435 767
-452 803 -55 121 -79 239 -80 390 0 153 15 238 66 365 32 78 458 836 543 965
134 205 351 359 600 428 l99 27 1015 0 c1015 0 1015 0 1092 -22 198 -57 332
-130 464 -255 101 -97 156 -172 262 -359 130 -228 155 -305 155 -464 0 -263
-142 -490 -381 -610 -94 -47 -187 -68 -302 -68 -117 0 -199 20 -307 74 -101
50 -182 123 -266 237 -102 139 -168 194 -292 243 -58 23 -70 24 -390 27 -369
4 -410 0 -523 -54 -130 -63 -247 -203 -303 -364 -30 -88 -31 -238 -2 -327 33
-99 508 -946 568 -1012 64 -70 145 -122 237 -152 l73 -24 1170 0 1170 0 71 26
c89 33 171 86 229 151 48 54 612 1031 653 1132 71 176 97 396 68 585 -33 218
30 101 -1361 2536 -703 1232 -1288 2263 -1301 2290 -13 28 -35 91 -49 140 -32
109 -44 290 -26 403 26 165 57 233 312 682 133 234 262 457 288 495 137 208
355 363 606 432 l100 28 1010 0 1010 0 100 -28 c243 -66 457 -218 596 -422 56
-83 208 -356 229 -412 51 -137 52 -311 3 -454 -143 -413 -620 -589 -996 -368
-85 51 -166 130 -239 235 -91 130 -192 203 -333 239 -85 22 -651 22 -744 0
-184 -44 -337 -190 -413 -396 -19 -53 -23 -83 -23 -174 0 -66 6 -130 14 -159
17 -59 603 -1116 661 -1193 68 -89 173 -157 295 -189 79 -21 2367 -20 2448 1
95 25 176 72 247 144 60 60 103 131 477 787 226 396 416 738 422 760 16 56 13
111 -7 169 -10 28 -627 1117 -1372 2420 -744 1304 -1368 2407 -1387 2453 -51
126 -73 231 -79 377 -9 202 27 378 112 548 30 60 1692 2979 1872 3287 104 179
157 254 237 336 177 179 396 292 642 329 124 19 212 19 336 0 346 -52 640
-254 819 -561 390 -670 1938 -3398 1964 -3460 63 -153 78 -237 78 -429 0 -190
-15 -278 -78 -430 -18 -44 -646 -1155 -1395 -2468 -1242 -2175 -1364 -2393
-1374 -2451 -8 -50 -8 -74 4 -113 8 -28 195 -368 424 -769 373 -655 415 -725
475 -785 71 -72 153 -120 247 -144 87 -23 2370 -22 2458 0 90 24 173 73 245
145 59 60 91 112 364 604 165 296 311 566 325 600 23 54 26 74 26 186 0 145
-14 193 -89 314 -85 136 -208 228 -348 261 -92 22 -659 21 -743 0 -141 -36
-242 -109 -333 -239 -136 -196 -294 -297 -508 -327 -90 -12 -209 0 -300 31
-273 94 -463 360 -464 648 0 89 23 196 59 277 38 83 173 316 229 395 131 184
335 327 559 391 134 38 216 40 1193 37 l945 -3 100 -27 c119 -33 275 -108 365
-176 85 -64 191 -178 245 -261 69 -107 485 -840 521 -917 62 -133 79 -219 79
-399 0 -180 -17 -267 -79 -399 -18 -39 -604 -1072 -1303 -2296 -698 -1224
-1281 -2254 -1295 -2290 -71 -182 -93 -377 -63 -574 28 -187 57 -249 354 -771
324 -568 339 -592 405 -652 67 -61 192 -120 281 -133 47 -7 442 -10 1200 -8
l1130 3 65 22 c112 38 215 115 281 209 59 86 511 911 527 964 10 35 16 90 16
150 1 120 -24 205 -93 316 -84 136 -203 226 -342 259 -92 21 -669 22 -752 0
-137 -36 -244 -116 -343 -257 -143 -203 -342 -311 -574 -311 -116 0 -197 20
-310 75 -153 74 -289 234 -344 403 -41 127 -39 290 5 422 24 72 207 398 269
477 165 215 418 361 685 396 65 8 350 11 1045 8 l955 -3 96 -27 c231 -63 426
-192 562 -370 51 -67 474 -794 552 -948 86 -171 120 -376 92 -565 -8 -61 -30
-149 -47 -198 -23 -62 -160 -312 -466 -848 -239 -418 -434 -762 -434 -765 0
-3 282 -4 628 -1 685 4 750 9 1046 68 409 83 800 249 1128 480 295 209 566
498 753 803 423 690 522 1528 279 2351 -81 275 -187 506 -402 880 -1570 2731
-9278 16066 -9340 16159 -427 645 -1028 1085 -1732 1267 -253 66 -577 99 -810
82z"/>
<path d="M12217 15987 c-20 -12 -48 -38 -60 -57 -13 -19 -340 -590 -727 -1268
l-703 -1234 -5 -77 c-3 -53 0 -87 10 -111 21 -49 1426 -2511 1446 -2534 29
-31 74 -49 127 -49 60 0 105 21 138 65 31 42 1413 2466 1432 2513 19 43 19
155 2 198 -14 33 -1380 2432 -1423 2499 -48 75 -160 101 -237 55z"/>
<path d="M12145 4340 c-157 -25 -344 -97 -470 -182 -154 -104 -259 -221 -374
-416 -61 -104 -2090 -3664 -2120 -3719 l-12 -23 783 0 783 1 705 1237 c388
680 720 1254 738 1274 58 64 155 76 227 27 43 -30 -3 49 800 -1362 l670 -1176
783 -1 c430 0 782 2 782 3 0 2 -215 381 -478 843 -263 461 -721 1264 -1017
1784 -631 1109 -632 1111 -700 1215 -160 245 -412 416 -710 481 -84 19 -307
26 -390 14z"/>
</g>
</svg>
